<svg width="105" height="45" viewBox="0 0 105 45" fill="none" xmlns="http://www.w3.org/2000/svg">
<g clip-path="url(#clip0_219_1214)">
<path d="M23.7948 4.59567C19.7719 4.59567 17.2896 7.63432 17.2896 12.8129C17.2896 17.9486 19.7719 21.0301 23.7948 21.0301C27.8178 21.0301 30.3001 17.9915 30.3001 12.8129C30.3001 7.63432 27.8606 4.59567 23.7948 4.59567ZM23.7948 20.0885C22.2541 20.0885 21.7833 18.4194 21.7833 12.77C21.7833 7.12075 22.2541 5.45162 23.7948 5.45162C25.3355 5.45162 25.8063 7.16354 25.8063 12.8129C25.8063 18.4194 25.3355 20.0885 23.7948 20.0885ZM53.4538 27.835C51.7419 27.835 50.5007 28.4769 49.7732 29.5897V23.9403H45.4506V34.4258C45.4506 40.118 42.1979 42.8142 39.2448 42.8142C37.0622 42.8142 36.1635 41.3164 36.1635 36.1805C36.1635 31.0448 36.7198 28.7337 38.4746 28.7337C39.63 28.7337 40.6145 29.8464 41.5988 32.4143H42.6687V28.6054C41.3848 28.0917 39.8012 27.835 38.5601 27.835C34.152 27.835 31.6697 31.0021 31.6697 36.1805C31.6697 41.3164 34.152 44.2266 38.3461 44.2266C41.8128 44.2266 44.2951 42.3863 45.4506 39.262V43.8414H49.7732V32.2004C49.7732 30.4028 50.7575 29.5041 51.7846 29.5041C52.7691 29.5041 53.1114 30.3172 53.1114 31.5583V43.8842H57.434V32.3716C57.434 29.1616 55.8505 27.835 53.4538 27.835ZM32.9536 0.701051V20.6449H37.2762V0.701051H32.9536ZM48.5321 0.701051V6.13639C48.1469 5.19484 47.2053 4.59567 45.7073 4.59567C42.3263 4.59567 40.0581 7.63432 40.0581 12.7273C40.0581 17.9486 42.0696 20.9873 45.5362 20.9873C47.1624 20.9873 48.2752 20.217 48.7888 18.6334V20.6021H52.8118V0.701051H48.5321ZM46.3922 19.7462C45.0226 19.7462 44.5519 18.3767 44.5519 12.6844C44.5519 7.33474 45.0226 5.75121 46.4778 5.75121C48.0613 5.75121 48.6177 7.63432 48.6177 12.6844C48.6177 17.7774 47.8901 19.7462 46.3922 19.7462ZM71.4718 4.59567C69.5459 4.59567 68.1335 5.62281 67.5343 7.03514C66.9352 5.40883 65.7368 4.59567 64.0248 4.59567C62.1845 4.59567 60.8579 5.40883 60.2159 6.73557V4.98084H56.1928V20.6449H60.4727V8.96105C60.4727 7.16354 61.3287 6.26479 62.3986 6.26479C63.2973 6.26479 63.6825 6.99235 63.6825 8.23349V20.6449H68.0051V8.96105C68.0051 7.16354 68.8611 6.26479 69.931 6.26479C70.8298 6.26479 71.2149 6.99235 71.2149 8.23349V20.6449H75.5376V9.13225C75.5376 5.9224 73.9112 4.59567 71.4718 4.59567ZM67.9195 34.6827L65.4372 33.1847C63.7681 32.2004 63.169 31.6012 63.169 30.574C63.169 29.4185 63.9821 28.691 65.3516 28.691C66.9779 28.691 68.1762 29.7609 68.9039 32.3716H69.9738V28.3485C68.6043 28.049 67.0635 27.7921 65.694 27.7921C62.2274 27.7921 60.1303 29.5041 60.1303 32.286C60.1303 34.2119 61.2002 35.5385 63.3829 36.8653L65.4372 38.1064C67.1492 39.1336 67.7483 39.8611 67.7483 41.0167C67.7483 42.5147 66.8067 43.285 65.1805 43.285C63.169 43.285 62.0134 42.0011 61.2431 39.1764H60.173V43.5846C61.7566 44.0125 63.4257 44.1837 64.7952 44.1837C68.7326 44.1837 71.001 42.3434 71.001 39.262C70.9581 37.1649 69.931 35.881 67.9195 34.6827ZM84.3967 4.59567C82.7704 4.59567 80.8445 4.89524 79.0469 5.45162V9.13225H80.1169C81.0157 6.82115 82.214 5.53722 83.9259 5.53722C84.9959 5.53722 85.4238 6.05079 85.4238 7.24914V9.26064C85.4238 10.245 85.1671 10.5446 84.0543 10.9298L82.8988 11.3149C79.475 12.4705 77.9343 13.9684 77.9343 16.6647C77.9343 19.5321 79.6462 21.0301 82.1284 21.0301C83.8831 21.0301 85.3811 20.2597 85.8519 18.7617V20.6449H89.7893V9.26064C89.7464 6.17919 87.9061 4.59567 84.3967 4.59567ZM85.4238 16.4506C85.4238 18.505 84.7391 19.4466 83.6691 19.4466C82.642 19.4466 82.2996 18.6334 82.2996 16.5364V16.1083C82.2996 13.6689 82.8133 12.6844 84.2255 11.9569L85.4238 11.3577V16.4506ZM101.002 4.59567C99.1193 4.59567 97.7496 5.40883 97.0649 6.73557V4.98084H92.9991V20.6449H97.3217V8.91826C97.3217 7.12074 98.306 6.22198 99.3332 6.22198C100.318 6.22198 100.66 7.03514 100.66 8.27629V20.6021H104.983V9.13225C104.983 5.9224 103.399 4.59567 101.002 4.59567ZM15.4493 37.1649C15.4493 41.1879 12.5389 43.8842 7.874 43.8842H1.02632V36.7369H2.05347C2.99503 40.9739 4.74975 42.857 7.7028 42.857C10.0995 42.857 11.3834 41.5731 11.3834 39.476C11.3834 37.2505 10.0139 36.2234 8.00239 35.0678L4.96373 33.2703C2.39585 31.7723 0.940725 29.932 0.940725 27.3642C0.940725 24.4967 2.60985 22.6564 5.30611 21.886C1.4971 20.8589 0.127563 17.3922 0.127563 11.2293C0.127563 4.21049 3.03782 0.273071 8.98674 0.273071H14.5077V6.17919H13.4377C12.1538 2.41297 11.041 1.25742 9.02953 1.25742C6.07648 1.25742 5.26332 4.42448 5.26332 11.4005C5.26332 19.4466 5.99088 21.244 8.17358 21.244C9.8427 21.244 10.6559 20.1741 10.6559 17.649V14.5676C10.6559 12.6844 10.0567 11.9997 8.08798 11.7001V10.7158H14.6789V27.5353H13.6946C12.1966 23.2984 10.2707 22.3568 8.13078 22.3568C6.03368 22.3568 4.74975 23.3412 4.74975 25.2671C4.74975 27.0646 5.81968 27.9206 7.83119 29.1189L11.1266 31.0876C13.7373 32.7139 15.4493 34.2119 15.4493 37.1649ZM23.7521 27.835C22.1257 27.835 20.1998 28.1346 18.4023 28.691V32.3716H19.4722C20.371 30.0605 21.5693 28.7765 23.2813 28.7765C24.3512 28.7765 24.7791 29.2901 24.7791 30.4884V32.4572C24.7791 33.4415 24.5224 33.7411 23.4096 34.1263L22.2541 34.5114C18.8303 35.667 17.2896 37.1649 17.2896 39.8611C17.2896 42.7286 19.0014 44.2266 21.4837 44.2266C23.2384 44.2266 24.7364 43.4562 25.2072 41.9583V43.8414H29.1017V32.5428C29.1017 29.4185 27.2187 27.835 23.7521 27.835ZM24.7791 39.69C24.7791 41.7443 24.0944 42.6859 23.0244 42.6859C21.9974 42.6859 21.6549 41.8727 21.6549 39.7755V39.3476C21.6549 36.9081 22.1685 35.9237 23.5808 35.1962L24.7791 34.597V39.69Z" fill="#505050" fill-opacity="0.95"/>
</g>
<defs>
<clipPath id="clip0_219_1214">
<rect width="105" height="43.9535" fill="white" transform="translate(0 0.273193)"/>
</clipPath>
</defs>
</svg>
